#!OML:ASF H:\ManfredETheater\Project 1\Capture day 1\Session 1\subject.ASF
:FULLY-SPECIFIED
:DEGREES
78
root -8.842 17.0434 38.74 -170.561 18.7676 180.4
lowerback 5.99256 1.54763 1.50311
upperback -1.61947 2.47275 3.38288
thorax -5.13611 1.28515 2.41064
lowerneck -14.4249 3.85713 2.66703
upperneck 12.3176 5.72592 -6.12157
head 6.37121 2.45114 -1.82558
rclavicle 2.64384e-014 2.8625e-014
rhumerus -33.699 -7.41012 -79.18
rradius 34.1983
rwrist 5.83862
rhand -16.5345 -10.8137
rfingers 7.12502
rthumb 9.68444 -40.571
lclavicle 2.64384e-014 2.8625e-014
lhumerus -32.4021 2.68221 90.1513
lradius 33.4162
lwrist -8.37216
lhand -7.38734 0.876302
lfingers 7.12502
lthumb 18.4983 30.0168
rfemur -12.1136 -2.46745 25.843
rtibia 29.5851
rfoot -20.556 -21.6649
rtoes -17.3589
lfemur -33.0149 -0.541141 -11.6231
ltibia 47.2822
lfoot -17.3452 -2.29659
ltoes 5.46219
79
root -8.84067 17.0435 38.7118 -170.495 18.7753 180.374
lowerback 6.04522 1.53701 1.48048
upperback -1.6115 2.4587 3.38983
thorax -5.1585 1.2789 2.4308
lowerneck -14.4377 3.86955 2.69106
upperneck 12.2371 5.73511 -6.14881
head 6.34972 2.45502 -1.83737
rclavicle 1.05356e-014 3.65764e-014
rhumerus -33.5821 -7.54357 -79.0972
rradius 34.1642
rwrist 5.90474
rhand -16.6046 -10.8457
rfingers 7.12502
rthumb 9.61683 -40.6062
lclavicle 1.05356e-014 3.65764e-014
lhumerus -32.3697 2.58104 90.192
lradius 33.4587
lwrist -8.34957
lhand -7.39451 0.841616
lfingers 7.12502
lthumb 18.4914 29.9827
rfemur -12.0853 -2.411 25.7924
rtibia 29.5538
rfoot -20.5625 -21.7629
rtoes -17.4633
lfemur -33.1091 -0.65458 -11.6397
ltibia 47.4722
lfoot -17.3245 -2.27471
ltoes 5.08045
80
root -8.83926 17.0437 38.684 -170.423 18.7719 180.336
lowerback 6.09991 1.52564 1.44966
upperback -1.60542 2.44243 3.39131
thorax -5.184 1.27155 2.45005
lowerneck -14.4579 3.87878 2.71102
upperneck 12.1566 5.73954 -6.17011
head 6.32894 2.45668 -1.84698
rclavicle 3.10104e-014 -4.92986e-014
rhumerus -33.4684 -7.68641 -79.0233
rradius 34.1441
rwrist 5.96259
rhand -16.6742 -10.8862
rfingers 7.12502
rthumb 9.54968 -40.6498
lclavicle 3.10104e-014 -4.92986e-014
lhumerus -32.3237 2.47232 90.2297
lradius 33.4909
lwrist -8.32902
lhand -7.37736 0.82125
lfingers 7.12502
lthumb 18.5079 29.9608
rfemur -12.0667 -2.35934 25.7323
rtibia 29.5192
rfoot -20.5721 -21.8624
rtoes -17.5497
lfemur -33.2239 -0.766596 -11.6665
ltibia 47.6721
lfoot -17.2902 -2.27086
ltoes 4.69297
81
root -8.83829 17.0443 38.6557 -170.348 18.7714 180.278
lowerback 6.14362 1.5163 1.41444
upperback -1.59665 2.42652 3.38045
thorax -5.2 1.26397 2.45921
lowerneck -14.4794 3.88582 2.73196
upperneck 12.073 5.7403 -6.19015
head 6.30723 2.4567 -1.85673
rclavicle -5.42682e-014 -3.02153e-014
rhumerus -33.3623 -7.82069 -78.9686
rradius 34.1495
rwrist 6.0028
rhand -16.7451 -10.936
rfingers 7.12502
rthumb 9.48128 -40.7027
lclavicle -5.42682e-014 -3.02153e-014
lhumerus -32.2667 2.35689 90.2602
lradius 33.518
lwrist -8.3077
lhand -7.34357 0.80642
lfingers 7.12502
lthumb 18.5404 29.9429
rfemur -12.0551 -2.3181 25.6464
rtibia 29.4823
rfoot -20.588 -21.9444
rtoes -17.6274
lfemur -33.3525 -0.872921 -11.7184
ltibia 47.8847
lfoot -17.2474 -2.27258
ltoes 4.29138
82
root -8.8378 17.0446 38.6277 -170.265 18.7553 180.208
lowerback 6.18609 1.50211 1.37981
upperback -1.59167 2.40359 3.36342
thorax -5.21868 1.25266 2.46238
lowerneck -14.4968 3.89226 2.74542
upperneck 11.9837 5.74045 -6.20391
head 6.28259 2.45675 -1.86339
rclavicle 9.14409e-015 -3.18055e-015
rhumerus -33.2683 -7.923 -78.9368
rradius 34.1865
rwrist 6.00817
rhand -16.8197 -10.9903
rfingers 7.12502
rthumb 9.40934 -40.7603
lclavicle 9.14409e-015 -3.18055e-015
lhumerus -32.2043 2.23704 90.2872
lradius 33.5444
lwrist -8.27722
lhand -7.25761 0.833696
lfingers 7.12502
lthumb 18.623 29.9622
rfemur -12.0578 -2.30367 25.5477
rtibia 29.4441
rfoot -20.6117 -22.0109
rtoes -17.69
lfemur -33.5108 -0.967079 -11.7866
ltibia 48.1151
lfoot -17.1948 -2.30094
ltoes 3.87906
83
root -8.83807 17.0447 38.5998 -170.172 18.7363 180.142
lowerback 6.24236 1.48576 1.35791
upperback -1.59902 2.38029 3.34887
thorax -5.25774 1.24097 2.4606
lowerneck -14.49 3.89879 2.74765
upperneck 11.8901 5.74328 -6.21535
head 6.25224 2.45851 -1.86761
rclavicle -9.02482e-014 -7.63333e-014
rhumerus -33.2075 -7.96128 -78.926
rradius 34.2619
rwrist 5.95957
rhand -16.9042 -11.0631
rfingers 7.12502
rthumb 9.32781 -40.8367
lclavicle -9.02482e-014 -7.63333e-014
lhumerus -32.1619 2.1188 90.3162
lradius 33.5784
lwrist -8.23437
lhand -7.1465 0.87758
lfingers 7.12502
lthumb 18.7299 29.9959
rfemur -12.0671 -2.31104 25.4493
rtibia 29.4045
rfoot -20.6429 -22.0527
rtoes -17.7485
lfemur -33.6916 -1.03806 -11.8569
ltibia 48.3696
lfoot -17.1373 -2.35189
ltoes 3.4768
84
root -8.83896 17.0442 38.5717 -170.07 18.7198 180.089
lowerback 6.31979 1.47909 1.35603
upperback -1.60833 2.37248 3.33277
thorax -5.31059 1.23634 2.44378
lowerneck -14.5208 3.90011 2.75125
upperneck 11.8121 5.73896 -6.2264
head 6.2329 2.45584 -1.87202
rclavicle -2.16675e-014 0
rhumerus -33.162 -7.97048 -78.9332
rradius 34.375
rwrist 5.86774
rhand -16.9923 -11.1576
rfingers 7.12502
rthumb 9.24281 -40.935
lclavicle -2.16675e-014 0
lhumerus -32.1144 1.96283 90.3552
lradius 33.6228
lwrist -8.17116
lhand -7.00779 0.940226
lfingers 7.12502
lthumb 18.8633 30.0456
rfemur -12.0817 -2.33905 25.3596
rtibia 29.3649
rfoot -20.6849 -22.0656
rtoes -17.8011
lfemur -33.8957 -1.07439 -11.9219
ltibia 48.6554
lfoot -17.0731 -2.43039
ltoes 3.09343
85
root -8.84029 17.0431 38.5442 -169.95 18.6983 180.048
lowerback 6.41257 1.47557 1.37138
upperback -1.6262 2.37164 3.31806
thorax -5.3808 1.23475 2.41752
lowerneck -14.5588 3.89936 2.75026
upperneck 11.7347 5.73246 -6.23558
head 6.2147 2.45192 -1.8752
rclavicle -4.69132e-014 7.95139e-015
rhumerus -33.1345 -7.92983 -78.9624
rradius 34.5201
rwrist 5.73228
rhand -17.0742 -11.2378
rfingers 7.12502
rthumb 9.16377 -41.0187
lclavicle -4.69132e-014 7.95139e-015
lhumerus -32.0732 1.78217 90.3997
lradius 33.6814
lwrist -8.08949
lhand -6.86052 0.997858
lfingers 7.12502
lthumb 19.005 30.0894
rfemur -12.1127 -2.38783 25.2827
rtibia 29.325
rfoot -20.7333 -22.0549
rtoes -17.8525
lfemur -34.1409 -1.07322 -11.9791
ltibia 48.9788
lfoot -16.9958 -2.55242
ltoes 2.77065
86
root -8.84192 17.0413 38.5175 -169.809 18.6757 180.024
lowerback 6.51901 1.47592 1.40292
upperback -1.65187 2.37896 3.30774
thorax -5.46688 1.23693 2.38542
lowerneck -14.6063 3.89678 2.74344
upperneck 11.6556 5.72479 -6.24611
head 6.1974 2.44697 -1.87784
rclavicle -1.21259e-014 -2.06736e-014
rhumerus -33.1209 -7.83469 -79.0126
rradius 34.6963
rwrist 5.56154
rhand -17.1449 -11.3172
rfingers 7.12502
rthumb 9.09551 -41.101
lclavicle -1.21259e-014 -2.06736e-014
lhumerus -32.0385 1.57607 90.4523
lradius 33.759
lwrist -7.98573
lhand -6.71556 1.04113
lfingers 7.12502
lthumb 19.1444 30.1189
rfemur -12.1653 -2.44691 25.2237
rtibia 29.2876
rfoot -20.7861 -22.0298
rtoes -17.9104
lfemur -34.4334 -1.02799 -12.0241
ltibia 49.3448
lfoot -16.9009 -2.72437
ltoes 2.53275
87
root -8.84397 17.0387 38.491 -169.65 18.6629 180.02
lowerback 6.63453 1.47929 1.45591
upperback -1.68189 2.3938 3.3038
thorax -5.56245 1.24247 2.34681
lowerneck -14.6406 3.89497 2.72455
upperneck 11.5592 5.7203 -6.25817
head 6.17223 2.44361 -1.87895
rclavicle -6.87795e-014 4.92986e-014
rhumerus -33.1174 -7.67383 -79.0847
rradius 34.896
rwrist 5.35753
rhand -17.2005 -11.383
rfingers 7.12502
rthumb 9.0419 -41.1692
lclavicle -6.87795e-014 4.92986e-014
lhumerus -32.0163 1.35783 90.5106
lradius 33.8597
lwrist -7.8602
lhand -6.58686 1.06355
lfingers 7.12502
lthumb 19.2681 30.129
rfemur -12.2337 -2.51422 25.1828
rtibia 29.2553
rfoot -20.8475 -21.9785
rtoes -17.975
lfemur -34.7655 -0.934971 -12.0548
ltibia 49.7565
lfoot -16.7879 -2.93967
ltoes 2.40202
